<svg xmlns="http://www.w3.org/2000/svg" viewBox="0 0 512 512" width="100%" height="100%">
  <defs>
    <!-- Master Metallic UI Gradients -->
    <linearGradient id="frameBevelGrad" x1="0%" y1="0%" x2="100%" y2="100%">
      <stop offset="0%" stop-color="#334155" />
      <stop offset="25%" stop-color="#1e293b" />
      <stop offset="70%" stop-color="#0f172a" />
      <stop offset="100%" stop-color="#020617" />
    </linearGradient>
    <linearGradient id="steelTrimGrad" x1="0%" y1="0%" x2="0%" y2="100%">
      <stop offset="0%" stop-color="#64748b" />
      <stop offset="50%" stop-color="#334155" />
      <stop offset="100%" stop-color="#1e293b" />
    </linearGradient>
    <linearGradient id="cyanNeonGrad" x1="0%" y1="0%" x2="100%" y2="100%">
      <stop offset="0%" stop-color="#38bdf8" />
      <stop offset="50%" stop-color="#0284c7" />
      <stop offset="100%" stop-color="#0369a1" />
    </linearGradient>
    <linearGradient id="goldPlateGrad" x1="0%" y1="0%" x2="100%" y2="100%">
      <stop offset="0%" stop-color="#fef08a" />
      <stop offset="40%" stop-color="#eab308" />
      <stop offset="100%" stop-color="#a16207" />
    </linearGradient>
    <linearGradient id="lightSweepGrad" x1="0%" y1="0%" x2="100%" y2="0%">
      <stop offset="0%" stop-color="rgba(56,189,248,0)" />
      <stop offset="50%" stop-color="rgba(56,189,248,0.6)" />
      <stop offset="100%" stop-color="rgba(56,189,248,0)" />
    </linearGradient>

    <!-- Circular Clip Path for Master Round Avatar -->
    <clipPath id="avatarScreenClip">
      <circle cx="256" cy="256" r="212" />
    </clipPath>

    
      <linearGradient id="cyberBladeGrad" x1="0%" y1="0%" x2="100%" y2="100%">
        <stop offset="0%" stop-color="#22d3ee" /><stop offset="50%" stop-color="#3b82f6" /><stop offset="100%" stop-color="#ec4899" />
      </linearGradient>
    <style>
      @keyframes bladeSlash { 0%, 100% { transform: rotate(-5deg); } 50% { transform: rotate(18deg) translateY(-8px); } }
      @keyframes visorGlow { 0%, 100% { fill-opacity: 0.6; } 50% { fill-opacity: 1; } }
      @keyframes sparkFly { 0% { opacity: 0; transform: translateY(0); } 50% { opacity: 1; } 100% { opacity: 0; transform: translate(14px, -24px); } }
      .cyber-blade { transform-origin: 320px 340px; animation: bladeSlash 2.4s ease-in-out infinite; }
      .cyber-visor { animation: visorGlow 1.8s ease-in-out infinite; }
      .cyber-spark { animation: sparkFly 1.2s ease-out infinite; }
    </style>
  </defs>

  <style>
    /* Frame continuous subtle animations */
    @keyframes framePulse {
      0%, 100% { stroke-opacity: 0.6; filter: drop-shadow(0 0 6px rgba(56,189,248,0.35)); }
      50% { stroke-opacity: 1; filter: drop-shadow(0 0 16px rgba(56,189,248,0.85)); }
    }
    @keyframes sweepRotate {
      0% { transform: rotate(0deg); }
      100% { transform: rotate(360deg); }
    }
    .frame-neon-glow {
      animation: framePulse 4s ease-in-out infinite;
    }
    .frame-sweep-line {
      transform-origin: 256px 256px;
      animation: sweepRotate 12s linear infinite;
    }
  </style>

  <!-- BACKGROUND & CHARACTER CONTENT (CLIPPED TO CIRCLE) -->
  <g clip-path="url(#avatarScreenClip)">
    
  <g id="character-bg"><rect x="0" y="0" width="512" height="512" fill="#0f172a" />
         <circle cx="256" cy="256" r="180" fill="#1e1b4b" opacity="0.8" />
         <path d="M 0 380 L 512 380" stroke="#06b6d4" stroke-width="2" opacity="0.4" /></g>
  <g id="character-body">
      <!-- Samurai Body -->
      <path d="M 170 420 L 256 310 L 342 420 Z" fill="#1e293b" stroke="#0284c7" stroke-width="4" />
      <!-- Cyber Armor Plates -->
      <polygon points="210,340 302,340 286,390 226,390" fill="#334155" stroke="#38bdf8" stroke-width="2" />
      <!-- Helmet -->
      <path d="M 180 230 C 180 140 332 140 332 230 C 332 280 180 280 180 230 Z" fill="#090d16" stroke="#38bdf8" stroke-width="5" />
      <!-- Crest Kabuto Horns -->
      <path d="M 256 140 L 220 70 L 246 110 L 256 80 L 266 110 L 292 70 Z" fill="#facc15" stroke="#ca8a04" stroke-width="3" />
      <!-- Cyber Neon Visor -->
      <rect x="204" y="210" width="104" height="18" rx="9" fill="#22d3ee" class="cyber-visor" />
      <rect x="214" y="214" width="30" height="6" rx="3" fill="#ffffff" />
      <!-- Cyber Katana -->
      <g class="cyber-blade">
        <rect x="320" y="240" width="14" height="150" rx="4" fill="#0f172a" stroke="#64748b" stroke-width="2" />
        <path d="M 327 240 L 327 90 Q 332 70 345 74 L 336 240 Z" fill="url(#cyberBladeGrad)" />
        <circle cx="338" cy="110" r="3" fill="#ffffff" class="cyber-spark" />
      </g>
    </g>
  
  </g>

  <!-- ================= MASTER FUTURISTIC METALLIC ROUND FRAME ================= -->
  <g id="frame">
    <!-- Outer Shadow Ring -->
    <circle cx="256" cy="256" r="244" fill="none" stroke="#020617" stroke-width="12" opacity="0.9" />

    <!-- Main Outer Beveled Steel Shell (Circular) -->
    <circle cx="256" cy="256" r="232" fill="none" stroke="url(#frameBevelGrad)" stroke-width="26" />
    
    <!-- Outer Highlight Rim -->
    <circle cx="256" cy="256" r="219" fill="none" stroke="url(#steelTrimGrad)" stroke-width="4" opacity="0.85" />

    <!-- Neon Cyan Inner Cyber Border -->
    <circle cx="256" cy="256" r="212" fill="none" stroke="url(#cyanNeonGrad)" stroke-width="5" class="frame-neon-glow" />

    <!-- 4 Symmetrical Gold Armor Clamps (Top, Right, Bottom, Left) -->
    <!-- Top Clamp -->
    <g transform="translate(256, 24)">
      <path d="M -18 0 L 18 0 L 12 24 L -12 24 Z" fill="url(#goldPlateGrad)" />
      <circle cx="0" cy="12" r="3.5" fill="#fef08a" stroke="#78350f" stroke-width="1.2" />
    </g>
    <!-- Right Clamp -->
    <g transform="translate(488, 256) rotate(90)">
      <path d="M -18 0 L 18 0 L 12 24 L -12 24 Z" fill="url(#goldPlateGrad)" />
      <circle cx="0" cy="12" r="3.5" fill="#fef08a" stroke="#78350f" stroke-width="1.2" />
    </g>
    <!-- Bottom Clamp -->
    <g transform="translate(256, 488) rotate(180)">
      <path d="M -18 0 L 18 0 L 12 24 L -12 24 Z" fill="url(#goldPlateGrad)" />
      <circle cx="0" cy="12" r="3.5" fill="#fef08a" stroke="#78350f" stroke-width="1.2" />
    </g>
    <!-- Left Clamp -->
    <g transform="translate(24, 256) rotate(270)">
      <path d="M -18 0 L 18 0 L 12 24 L -12 24 Z" fill="url(#goldPlateGrad)" />
      <circle cx="0" cy="12" r="3.5" fill="#fef08a" stroke="#78350f" stroke-width="1.2" />
    </g>

    <!-- Diagonal Rivets -->
    <circle cx="95" cy="95" r="4" fill="#94a3b8" stroke="#0f172a" stroke-width="1.5" />
    <circle cx="417" cy="95" r="4" fill="#94a3b8" stroke="#0f172a" stroke-width="1.5" />
    <circle cx="95" cy="417" r="4" fill="#94a3b8" stroke="#0f172a" stroke-width="1.5" />
    <circle cx="417" cy="417" r="4" fill="#94a3b8" stroke="#0f172a" stroke-width="1.5" />

    <!-- Rotating Shimmer Light Sweep on Circular Bezel -->
    <g class="frame-sweep-line">
      <path d="M 256 12 A 244 244 0 0 1 400 60" fill="none" stroke="url(#lightSweepGrad)" stroke-width="6" stroke-linecap="round" />
    </g>
  </g>
</svg>