<svg xmlns="http://www.w3.org/2000/svg" viewBox="0 0 512 512" width="100%" height="100%">
  <defs>
    <!-- Master Metallic UI Gradients -->
    <linearGradient id="frameBevelGrad" x1="0%" y1="0%" x2="100%" y2="100%">
      <stop offset="0%" stop-color="#334155" />
      <stop offset="25%" stop-color="#1e293b" />
      <stop offset="70%" stop-color="#0f172a" />
      <stop offset="100%" stop-color="#020617" />
    </linearGradient>
    <linearGradient id="steelTrimGrad" x1="0%" y1="0%" x2="0%" y2="100%">
      <stop offset="0%" stop-color="#64748b" />
      <stop offset="50%" stop-color="#334155" />
      <stop offset="100%" stop-color="#1e293b" />
    </linearGradient>
    <linearGradient id="cyanNeonGrad" x1="0%" y1="0%" x2="100%" y2="100%">
      <stop offset="0%" stop-color="#38bdf8" />
      <stop offset="50%" stop-color="#0284c7" />
      <stop offset="100%" stop-color="#0369a1" />
    </linearGradient>
    <linearGradient id="goldPlateGrad" x1="0%" y1="0%" x2="100%" y2="100%">
      <stop offset="0%" stop-color="#fef08a" />
      <stop offset="40%" stop-color="#eab308" />
      <stop offset="100%" stop-color="#a16207" />
    </linearGradient>
    <linearGradient id="lightSweepGrad" x1="0%" y1="0%" x2="100%" y2="0%">
      <stop offset="0%" stop-color="rgba(56,189,248,0)" />
      <stop offset="50%" stop-color="rgba(56,189,248,0.6)" />
      <stop offset="100%" stop-color="rgba(56,189,248,0)" />
    </linearGradient>

    <!-- Circular Clip Path for Master Round Avatar -->
    <clipPath id="avatarScreenClip">
      <circle cx="256" cy="256" r="212" />
    </clipPath>

    
    <radialGradient id="mountainBg" cx="50%" cy="40%" r="70%">
      <stop offset="0%" stop-color="#3f3f46" />
      <stop offset="50%" stop-color="#27272a" />
      <stop offset="100%" stop-color="#09090b" />
    </radialGradient>
    <linearGradient id="graniteRock" x1="0%" y1="0%" x2="100%" y2="100%">
      <stop offset="0%" stop-color="#a1a1aa" />
      <stop offset="45%" stop-color="#71717a" />
      <stop offset="100%" stop-color="#3f3f46" />
    </linearGradient>
    <linearGradient id="runeGlow" x1="0%" y1="0%" x2="100%" y2="0%">
      <stop offset="0%" stop-color="#38bdf8" />
      <stop offset="100%" stop-color="#0284c7" />
    </linearGradient>
  
  </defs>

  <style>
    /* Frame continuous subtle animations */
    @keyframes framePulse {
      0%, 100% { stroke-opacity: 0.6; filter: drop-shadow(0 0 6px rgba(56,189,248,0.35)); }
      50% { stroke-opacity: 1; filter: drop-shadow(0 0 16px rgba(56,189,248,0.85)); }
    }
    @keyframes sweepRotate {
      0% { transform: rotate(0deg); }
      100% { transform: rotate(360deg); }
    }
    .frame-neon-glow {
      animation: framePulse 4s ease-in-out infinite;
    }
    .frame-sweep-line {
      transform-origin: 256px 256px;
      animation: sweepRotate 12s linear infinite;
    }
  </style>

  <!-- BACKGROUND & CHARACTER CONTENT (CLIPPED TO CIRCLE) -->
  <g clip-path="url(#avatarScreenClip)">
    
    <style>
      @keyframes colossusFlexAnim {
        0%, 100% { transform: scale(1, 1); }
        40% { transform: scale(1.08, 0.96) translateY(4px); } /* Maximum flex! */
        45% { transform: scale(1.10, 0.95); }
        60% { transform: scale(0.98, 1.02); }
      }
      @keyframes flowerBreeze {
        0%, 100% { transform: rotate(0deg); }
        50% { transform: rotate(18deg); }
      }
      @keyframes butterflyHover {
        0%, 100% { transform: translate(140px, 180px); }
        35% { transform: translate(160px, 155px); }
        70% { transform: translate(130px, 170px); }
      }
      @keyframes wingFlap {
        0%, 100% { transform: scaleX(1); }
        50% { transform: scaleX(0.2); }
      }
      @keyframes runePulse {
        0%, 100% { opacity: 0.6; filter: drop-shadow(0 0 4px #38bdf8); }
        50% { opacity: 1; filter: drop-shadow(0 0 12px #38bdf8); }
      }
      .flex-actor { transform-origin: 256px 420px; animation: colossusFlexAnim 2.4s cubic-bezier(0.68, -0.55, 0.27, 1.55) infinite; }
      .daisy-anim { transform-origin: 270px 150px; animation: flowerBreeze 2.2s ease-in-out infinite; }
      .butterfly-group { animation: butterflyHover 4s ease-in-out infinite; }
      .b-wing { transform-origin: center; animation: wingFlap 0.2s linear infinite; }
      .rune-crack { animation: runePulse 2s ease-in-out infinite; }
    </style>

    <!-- MOUNTAIN PEAKS BACKGROUND -->
    <g id="background">
      <rect x="44" y="44" width="424" height="424" fill="url(#mountainBg)" />
      <!-- Sharp Granite Peak Silhouettes -->
      <polygon points="44,380 140,240 240,380" fill="#18181b" />
      <polygon points="260,380 370,220 468,380" fill="#18181b" />
    </g>

    <!-- BUTTERFLY HOVERING (COMEDIC CONTRAST) -->
    <g class="butterfly-group">
      <ellipse cx="0" cy="0" rx="3" ry="8" fill="#18181b" />
      <g class="b-wing">
        <circle cx="-7" cy="-3" r="6" fill="#facc15" />
        <circle cx="7" cy="-3" r="6" fill="#facc15" />
      </g>
    </g>

    <!-- TINY MOUND & SHADOW -->
    <g id="character-shadow">
      <ellipse cx="256" cy="425" rx="80" ry="18" fill="#000" opacity="0.6" />
      <!-- Small pebble mound -->
      <polygon points="180,435 256,415 332,435" fill="#52525b" stroke="#0f172a" stroke-width="3" />
    </g>

    <!-- WHOLE STONE GIANT (ANIMATED BICEP FLEX) -->
    <g id="character-animation" class="flex-actor">
      <!-- STONE LEGS -->
      <g id="character-legs">
        <rect x="205" y="375" width="42" height="45" rx="10" fill="url(#graniteRock)" stroke="#0f172a" stroke-width="4.5" />
        <rect x="265" y="375" width="42" height="45" rx="10" fill="url(#graniteRock)" stroke="#0f172a" stroke-width="4.5" />
      </g>

      <!-- CHISELED GRANITE TORSO -->
      <g id="character-body">
        <!-- Angular Rock Plates -->
        <polygon points="180,260 256,245 332,260 315,385 197,385" fill="url(#graniteRock)" stroke="#0f172a" stroke-width="5" />
        
        <!-- Glowing Cyan Arcane Cracks (ANIMATED PULSE) -->
        <g class="rune-crack">
          <path d="M225 285 L256 315 L245 345 L265 375" stroke="url(#runeGlow)" stroke-width="4.5" fill="none" stroke-linecap="round" />
          <path d="M256 315 L285 300 L295 335" stroke="url(#runeGlow)" stroke-width="4" fill="none" stroke-linecap="round" />
        </g>
      </g>

      <!-- COMICALLY FLEXED BICEPS (ARMS UP) -->
      <g id="character-arms">
        <!-- Left Arm Flexing Up -->
        <path d="M185 270 C140 260 120 220 135 180 C155 185 170 215 190 240 Z" fill="url(#graniteRock)" stroke="#0f172a" stroke-width="4.5" />
        <!-- Huge Stone Fist -->
        <circle cx="138" cy="180" r="22" fill="url(#graniteRock)" stroke="#0f172a" stroke-width="4" />
        <!-- Bicep muscle peak -->
        <ellipse cx="160" cy="225" rx="14" ry="18" fill="url(#graniteRock)" stroke="#0f172a" stroke-width="3" />

        <!-- Right Arm Flexing Up -->
        <path d="M327 270 C372 260 392 220 377 180 C357 185 342 215 322 240 Z" fill="url(#graniteRock)" stroke="#0f172a" stroke-width="4.5" />
        <!-- Huge Stone Fist -->
        <circle cx="374" cy="180" r="22" fill="url(#graniteRock)" stroke="#0f172a" stroke-width="4" />
        <!-- Bicep muscle peak -->
        <ellipse cx="352" cy="225" rx="14" ry="18" fill="url(#graniteRock)" stroke="#0f172a" stroke-width="3" />
      </g>

      <!-- STONE BLOCK HEAD -->
      <g id="character-head">
        <!-- Angular Granite Head -->
        <polygon points="196,155 256,140 316,155 322,235 256,245 190,235" fill="url(#graniteRock)" stroke="#0f172a" stroke-width="5" />

        <!-- Chiseled Brow -->
        <polygon points="205,175 256,185 307,175 302,192 256,200 210,192" fill="#52525b" stroke="#0f172a" stroke-width="3" />

        <!-- Glowing Blue Rune Eyes -->
        <g id="character-eyes">
          <polygon points="222,195 242,198 238,206 220,202" fill="#38bdf8" filter="drop-shadow(0 0 6px #38bdf8)" />
          <polygon points="290,195 270,198 274,206 292,202" fill="#38bdf8" filter="drop-shadow(0 0 6px #38bdf8)" />
        </g>

        <!-- Ferocious Stone Roar Mouth -->
        <polygon points="236,218 276,218 270,236 242,236" fill="#18181b" stroke="#0f172a" stroke-width="3" />
        <rect x="246" y="218" width="8" height="5" fill="#f8fafc" />
        <rect x="258" y="218" width="8" height="5" fill="#f8fafc" />

        <!-- CUTE PINK DAISY SPROUTED IN HEAD CRACK (ANIMATED SWAY) -->
        <g id="character-flower" class="daisy-anim">
          <!-- Green stem emerging from skull crack -->
          <path d="M266 148 Q270 125 264 105" stroke="#22c55e" stroke-width="4" fill="none" stroke-linecap="round" />
          <!-- Daisy Flower Petals -->
          <g transform="translate(264, 105)">
            <circle cx="0" cy="-10" r="6" fill="#f472b6" />
            <circle cx="10" cy="-3" r="6" fill="#f472b6" />
            <circle cx="7" cy="8" r="6" fill="#f472b6" />
            <circle cx="-7" cy="8" r="6" fill="#f472b6" />
            <circle cx="-10" cy="-3" r="6" fill="#f472b6" />
            <!-- Yellow Flower Center -->
            <circle cx="0" cy="0" r="6" fill="#facc15" stroke="#78350f" stroke-width="1.5" />
          </g>
        </g>
      </g>
    </g>
  
  </g>

  <!-- ================= MASTER FUTURISTIC METALLIC ROUND FRAME ================= -->
  <g id="frame">
    <!-- Outer Shadow Ring -->
    <circle cx="256" cy="256" r="244" fill="none" stroke="#020617" stroke-width="12" opacity="0.9" />

    <!-- Main Outer Beveled Steel Shell (Circular) -->
    <circle cx="256" cy="256" r="232" fill="none" stroke="url(#frameBevelGrad)" stroke-width="26" />
    
    <!-- Outer Highlight Rim -->
    <circle cx="256" cy="256" r="219" fill="none" stroke="url(#steelTrimGrad)" stroke-width="4" opacity="0.85" />

    <!-- Neon Cyan Inner Cyber Border -->
    <circle cx="256" cy="256" r="212" fill="none" stroke="url(#cyanNeonGrad)" stroke-width="5" class="frame-neon-glow" />

    <!-- 4 Symmetrical Gold Armor Clamps (Top, Right, Bottom, Left) -->
    <!-- Top Clamp -->
    <g transform="translate(256, 24)">
      <path d="M -18 0 L 18 0 L 12 24 L -12 24 Z" fill="url(#goldPlateGrad)" />
      <circle cx="0" cy="12" r="3.5" fill="#fef08a" stroke="#78350f" stroke-width="1.2" />
    </g>
    <!-- Right Clamp -->
    <g transform="translate(488, 256) rotate(90)">
      <path d="M -18 0 L 18 0 L 12 24 L -12 24 Z" fill="url(#goldPlateGrad)" />
      <circle cx="0" cy="12" r="3.5" fill="#fef08a" stroke="#78350f" stroke-width="1.2" />
    </g>
    <!-- Bottom Clamp -->
    <g transform="translate(256, 488) rotate(180)">
      <path d="M -18 0 L 18 0 L 12 24 L -12 24 Z" fill="url(#goldPlateGrad)" />
      <circle cx="0" cy="12" r="3.5" fill="#fef08a" stroke="#78350f" stroke-width="1.2" />
    </g>
    <!-- Left Clamp -->
    <g transform="translate(24, 256) rotate(270)">
      <path d="M -18 0 L 18 0 L 12 24 L -12 24 Z" fill="url(#goldPlateGrad)" />
      <circle cx="0" cy="12" r="3.5" fill="#fef08a" stroke="#78350f" stroke-width="1.2" />
    </g>

    <!-- Diagonal Rivets -->
    <circle cx="95" cy="95" r="4" fill="#94a3b8" stroke="#0f172a" stroke-width="1.5" />
    <circle cx="417" cy="95" r="4" fill="#94a3b8" stroke="#0f172a" stroke-width="1.5" />
    <circle cx="95" cy="417" r="4" fill="#94a3b8" stroke="#0f172a" stroke-width="1.5" />
    <circle cx="417" cy="417" r="4" fill="#94a3b8" stroke="#0f172a" stroke-width="1.5" />

    <!-- Rotating Shimmer Light Sweep on Circular Bezel -->
    <g class="frame-sweep-line">
      <path d="M 256 12 A 244 244 0 0 1 400 60" fill="none" stroke="url(#lightSweepGrad)" stroke-width="6" stroke-linecap="round" />
    </g>
  </g>
</svg>