<svg xmlns="http://www.w3.org/2000/svg" viewBox="0 0 512 512" width="100%" height="100%">
  <defs>
    <!-- Master Metallic UI Gradients -->
    <linearGradient id="frameBevelGrad" x1="0%" y1="0%" x2="100%" y2="100%">
      <stop offset="0%" stop-color="#334155" />
      <stop offset="25%" stop-color="#1e293b" />
      <stop offset="70%" stop-color="#0f172a" />
      <stop offset="100%" stop-color="#020617" />
    </linearGradient>
    <linearGradient id="steelTrimGrad" x1="0%" y1="0%" x2="0%" y2="100%">
      <stop offset="0%" stop-color="#64748b" />
      <stop offset="50%" stop-color="#334155" />
      <stop offset="100%" stop-color="#1e293b" />
    </linearGradient>
    <linearGradient id="cyanNeonGrad" x1="0%" y1="0%" x2="100%" y2="100%">
      <stop offset="0%" stop-color="#38bdf8" />
      <stop offset="50%" stop-color="#0284c7" />
      <stop offset="100%" stop-color="#0369a1" />
    </linearGradient>
    <linearGradient id="goldPlateGrad" x1="0%" y1="0%" x2="100%" y2="100%">
      <stop offset="0%" stop-color="#fef08a" />
      <stop offset="40%" stop-color="#eab308" />
      <stop offset="100%" stop-color="#a16207" />
    </linearGradient>
    <linearGradient id="lightSweepGrad" x1="0%" y1="0%" x2="100%" y2="0%">
      <stop offset="0%" stop-color="rgba(56,189,248,0)" />
      <stop offset="50%" stop-color="rgba(56,189,248,0.6)" />
      <stop offset="100%" stop-color="rgba(56,189,248,0)" />
    </linearGradient>

    <!-- Circular Clip Path for Master Round Avatar -->
    <clipPath id="avatarScreenClip">
      <circle cx="256" cy="256" r="212" />
    </clipPath>

    <style>
      @keyframes tentacleWave { 0%, 100% { transform: rotate(0deg); } 50% { transform: rotate(12deg); } }
      @keyframes hatBounce { 0%, 100% { transform: translateY(0); } 50% { transform: translateY(-8px); } }
      .tentacle-left { transform-origin: 190px 300px; animation: tentacleWave 1.8s ease-in-out infinite; }
      .chef-hat { animation: hatBounce 1.4s ease-in-out infinite; }
    </style>
  </defs>

  <style>
    /* Frame continuous subtle animations */
    @keyframes framePulse {
      0%, 100% { stroke-opacity: 0.6; filter: drop-shadow(0 0 6px rgba(56,189,248,0.35)); }
      50% { stroke-opacity: 1; filter: drop-shadow(0 0 16px rgba(56,189,248,0.85)); }
    }
    @keyframes sweepRotate {
      0% { transform: rotate(0deg); }
      100% { transform: rotate(360deg); }
    }
    .frame-neon-glow {
      animation: framePulse 4s ease-in-out infinite;
    }
    .frame-sweep-line {
      transform-origin: 256px 256px;
      animation: sweepRotate 12s linear infinite;
    }
  </style>

  <!-- BACKGROUND & CHARACTER CONTENT (CLIPPED TO CIRCLE) -->
  <g clip-path="url(#avatarScreenClip)">
    
  <g id="character-bg"><rect x="0" y="0" width="512" height="512" fill="#831843" />
         <circle cx="256" cy="256" r="175" fill="#9d174d" /></g>
  <g id="character-body">
      <!-- Bulbous Head -->
      <circle cx="256" cy="250" r="72" fill="#f43f5e" stroke="#9f1239" stroke-width="4" />
      <!-- Tentacles Around -->
      <g class="tentacle-left">
        <path d="M 200 290 Q 140 310 130 360 Q 160 380 190 330 Z" fill="#e11d48" stroke="#881337" stroke-width="3" />
        <circle cx="150" cy="345" r="5" fill="#ffe4e6" />
      </g>
      <path d="M 312 290 Q 372 310 382 360 Q 352 380 322 330 Z" fill="#e11d48" stroke="#881337" stroke-width="3" />
      <!-- Chef Toque Hat -->
      <g class="chef-hat">
        <path d="M 206 185 L 306 185 L 316 120 C 316 80 196 80 196 120 Z" fill="#ffffff" stroke="#cbd5e1" stroke-width="3" />
        <line x1="206" y1="180" x2="306" y2="180" stroke="#f43f5e" stroke-width="4" />
      </g>
      <!-- Big Cute Eyes -->
      <circle cx="232" cy="245" r="16" fill="#ffffff" />
      <circle cx="234" cy="245" r="8" fill="#0f172a" /><circle cx="236" cy="242" r="3" fill="#ffffff" />
      <circle cx="280" cy="245" r="16" fill="#ffffff" />
      <circle cx="278" cy="245" r="8" fill="#0f172a" /><circle cx="280" cy="242" r="3" fill="#ffffff" />
      <!-- Tiny Cooking Pan in Hand -->
      <circle cx="125" cy="380" r="20" fill="#334155" stroke="#0f172a" stroke-width="2" />
      <line x1="140" y1="375" x2="165" y2="360" stroke="#334155" stroke-width="5" stroke-linecap="round" />
    </g>
  
  </g>

  <!-- ================= MASTER FUTURISTIC METALLIC ROUND FRAME ================= -->
  <g id="frame">
    <!-- Outer Shadow Ring -->
    <circle cx="256" cy="256" r="244" fill="none" stroke="#020617" stroke-width="12" opacity="0.9" />

    <!-- Main Outer Beveled Steel Shell (Circular) -->
    <circle cx="256" cy="256" r="232" fill="none" stroke="url(#frameBevelGrad)" stroke-width="26" />
    
    <!-- Outer Highlight Rim -->
    <circle cx="256" cy="256" r="219" fill="none" stroke="url(#steelTrimGrad)" stroke-width="4" opacity="0.85" />

    <!-- Neon Cyan Inner Cyber Border -->
    <circle cx="256" cy="256" r="212" fill="none" stroke="url(#cyanNeonGrad)" stroke-width="5" class="frame-neon-glow" />

    <!-- 4 Symmetrical Gold Armor Clamps (Top, Right, Bottom, Left) -->
    <!-- Top Clamp -->
    <g transform="translate(256, 24)">
      <path d="M -18 0 L 18 0 L 12 24 L -12 24 Z" fill="url(#goldPlateGrad)" />
      <circle cx="0" cy="12" r="3.5" fill="#fef08a" stroke="#78350f" stroke-width="1.2" />
    </g>
    <!-- Right Clamp -->
    <g transform="translate(488, 256) rotate(90)">
      <path d="M -18 0 L 18 0 L 12 24 L -12 24 Z" fill="url(#goldPlateGrad)" />
      <circle cx="0" cy="12" r="3.5" fill="#fef08a" stroke="#78350f" stroke-width="1.2" />
    </g>
    <!-- Bottom Clamp -->
    <g transform="translate(256, 488) rotate(180)">
      <path d="M -18 0 L 18 0 L 12 24 L -12 24 Z" fill="url(#goldPlateGrad)" />
      <circle cx="0" cy="12" r="3.5" fill="#fef08a" stroke="#78350f" stroke-width="1.2" />
    </g>
    <!-- Left Clamp -->
    <g transform="translate(24, 256) rotate(270)">
      <path d="M -18 0 L 18 0 L 12 24 L -12 24 Z" fill="url(#goldPlateGrad)" />
      <circle cx="0" cy="12" r="3.5" fill="#fef08a" stroke="#78350f" stroke-width="1.2" />
    </g>

    <!-- Diagonal Rivets -->
    <circle cx="95" cy="95" r="4" fill="#94a3b8" stroke="#0f172a" stroke-width="1.5" />
    <circle cx="417" cy="95" r="4" fill="#94a3b8" stroke="#0f172a" stroke-width="1.5" />
    <circle cx="95" cy="417" r="4" fill="#94a3b8" stroke="#0f172a" stroke-width="1.5" />
    <circle cx="417" cy="417" r="4" fill="#94a3b8" stroke="#0f172a" stroke-width="1.5" />

    <!-- Rotating Shimmer Light Sweep on Circular Bezel -->
    <g class="frame-sweep-line">
      <path d="M 256 12 A 244 244 0 0 1 400 60" fill="none" stroke="url(#lightSweepGrad)" stroke-width="6" stroke-linecap="round" />
    </g>
  </g>
</svg>